<svg width="606" height="615" viewBox="0 0 606 615" fill="none" xmlns="http://www.w3.org/2000/svg">
<path fill-rule="evenodd" clip-rule="evenodd" d="M348.875 4.2671C414.601 18.7609 445.807 90.3975 495.965 135.276C539.229 173.985 599.602 195.454 622.281 248.894C645.867 304.467 635.16 367.337 619.156 425.548C602.48 486.204 581.146 550.422 529.506 586.346C478.267 621.991 411.289 612.905 348.875 613.574C285.685 614.251 221.696 618.976 165.41 590.246C102.576 558.174 45.2171 510.379 18.6598 445.022C-8.91675 377.157 -3.55519 300.241 19.2862 230.639C42.0789 161.185 85.4056 99.4127 145.66 58.0279C204.867 17.3631 278.734 -11.2002 348.875 4.2671Z" fill="#F4E8E1"/>
</svg>
