<svg width="122" height="20" viewBox="0 0 122 20" fill="none" xmlns="http://www.w3.org/2000/svg">
<path fill-rule="evenodd" clip-rule="evenodd" d="M19.8565 6.57264H22.7576V0H22.5812H13.2496L6.62556 6.57264H11.031H15.9571H19.8562H19.8565ZM15.2402 7.28452C15.7341 6.89349 16.3398 6.63806 17.0021 6.57442H15.9559H11.0292H6.62408L0 13.1471H8.1671H9.33157L8.3357 14.1352L2.7075 19.7197H15.4439C19.2332 19.7197 22.3493 16.8382 22.7207 13.1471H17.3226H9.33157L15.9556 6.57442L15.2402 7.28452Z" fill="#2664A1"/>
<path d="M32.7213 19.7229C35.0134 19.7229 36.2927 18.9765 37.0655 17.5375C37.0655 18.4436 37.2787 18.9768 37.6519 19.4564H41.3565C41.09 19.0032 40.9301 17.804 40.9301 15.9383V10.1281C40.9301 7.2764 39.1176 5.4375 34.6934 5.4375C30.2693 5.4375 28.4568 7.2764 28.4568 10.1281H32.5078C32.641 8.90209 33.3871 8.28922 34.7467 8.28922C36.1327 8.28922 36.8523 8.95561 36.8523 10.1281C36.8523 10.7145 36.5323 11.0609 35.3863 11.1677L32.4546 11.4077C28.9365 11.7009 27.7104 13.4333 27.7104 15.5654C27.7104 18.0975 29.4429 19.7232 32.721 19.7232L32.7213 19.7229ZM33.9206 17.0044C32.4281 17.0044 31.7885 16.3115 31.7885 15.2719C31.7885 14.4191 32.3749 13.8062 33.8941 13.673L35.3866 13.5662C36.133 13.4863 36.6659 13.353 36.8526 13.1398V13.9127C36.8526 15.5919 35.7866 17.0044 33.9209 17.0044H33.9206Z" fill="white"/>
<path d="M49.3437 19.7219V8.82144H52.169V5.96971H49.3437V4.8769C49.3437 3.91731 49.7701 3.46442 50.7297 3.46442H52.169V0.745923C51.5558 0.692695 50.3565 0.585938 49.7169 0.585938C46.572 0.585938 45.2927 1.94519 45.2927 5.01012V5.96971H43.2139V8.82144H45.2927V19.7219H49.3437Z" fill="white"/>
<path d="M58.1041 19.7205V13.4306C58.1041 10.9253 59.4101 9.48611 61.4355 9.48611L62.8747 9.51287V5.968C62.6083 5.86154 61.9684 5.78125 61.5955 5.78125C59.783 5.78125 58.5838 6.52763 57.8909 8.92617V5.9677H54.0264V19.7202H58.1041V19.7205Z" fill="white"/>
<path d="M71.9275 19.7226C75.7653 19.7226 77.9242 17.8837 78.5106 15.0319H74.7528C74.3796 16.258 73.3668 17.0044 71.9278 17.0044C70.0354 17.0044 68.8894 15.8051 68.8094 13.4862H78.7241C78.7773 13.1398 78.8041 12.8466 78.8041 12.4734C78.8041 8.36921 76.2988 5.4375 71.7682 5.4375C67.2372 5.4375 64.7319 8.34245 64.7319 12.5802C64.7319 16.8711 67.3172 19.7229 71.9281 19.7229L71.9275 19.7226ZM71.7676 8.1557C73.42 8.1557 74.4328 9.1153 74.7257 10.8742H68.8091C69.1023 9.115 70.1151 8.1557 71.7676 8.1557Z" fill="white"/>
<path d="M93.3476 19.722V10.6337C93.3476 7.30235 91.7486 5.70312 88.6034 5.70312C86.4181 5.70312 85.2453 6.71595 84.5257 8.04844V5.96956H80.6611V19.722H84.7389V12.0462C84.7389 10.0741 85.7517 8.98126 87.2974 8.98126C88.6834 8.98126 89.2698 9.8341 89.2698 11.4333V19.722H93.3476Z" fill="white"/>
<path d="M97.6039 19.7192C99.1764 19.7192 100.029 18.7596 100.029 17.5603C100.029 16.3343 99.1764 15.375 97.6039 15.375C96.0582 15.375 95.2051 16.3346 95.2051 17.5603C95.2051 18.7596 96.0579 19.7192 97.6039 19.7192Z" fill="white"/>
<path d="M106.897 19.7229C109.189 19.7229 110.468 18.9765 111.241 17.5375C111.241 18.4436 111.455 18.9768 111.828 19.4564H115.532C115.266 19.0032 115.106 17.804 115.106 15.9383V10.1281C115.106 7.2764 113.293 5.4375 108.869 5.4375C104.445 5.4375 102.633 7.2764 102.633 10.1281H106.684C106.817 8.90209 107.563 8.28922 108.922 8.28922C110.308 8.28922 111.028 8.95561 111.028 10.1281C111.028 10.7145 110.708 11.0609 109.562 11.1677L106.63 11.4077C103.112 11.7009 101.886 13.4333 101.886 15.5654C101.886 18.0975 103.619 19.7232 106.897 19.7232L106.897 19.7229ZM108.096 17.0044C106.604 17.0044 105.964 16.3115 105.964 15.2719C105.964 14.4191 106.551 13.8062 108.07 13.673L109.562 13.5662C110.309 13.4863 110.842 13.353 111.028 13.1398V13.9127C111.028 15.5919 109.962 17.0044 108.097 17.0044H108.096Z" fill="white"/>
<path d="M121.734 19.722V5.96947H117.656V19.722H121.734ZM119.682 4.23733C121.174 4.23733 122 3.35772 122 2.18492C122 1.01242 121.174 0.132812 119.682 0.132812C118.216 0.132812 117.39 1.01242 117.39 2.18492C117.39 3.35772 118.216 4.23733 119.682 4.23733Z" fill="white"/>
</svg>
