<svg width="145" height="25" viewBox="0 0 145 25" fill="none" xmlns="http://www.w3.org/2000/svg">
<path fill-rule="evenodd" clip-rule="evenodd" d="M23.458 8.61631H26.8852V0.851562H26.6769H15.6528L7.82727 8.61631H13.0318H18.8514H23.4576H23.458ZM18.0044 9.45732C18.5879 8.99536 19.3035 8.6936 20.0858 8.61842H18.85H13.0297H7.82552L0 16.3832H9.64841H11.0241L9.84759 17.5505L3.19857 24.1479H18.245C22.7216 24.1479 26.4029 20.7438 26.8417 16.3832H20.4645H11.0241L18.8496 8.61842L18.0044 9.45732Z" fill="#2664A1"/>
<path d="M38.6561 24.1479C41.3639 24.1479 42.8752 23.2661 43.7882 21.5662C43.7882 22.6366 44.0401 23.2665 44.4809 23.8331H48.8574C48.5427 23.2977 48.3537 21.8809 48.3537 19.6769V12.8129C48.3537 9.44391 46.2125 7.27148 40.9859 7.27148C35.7593 7.27148 33.6181 9.44391 33.6181 12.8129H38.4038C38.5612 11.3645 39.4426 10.6404 41.0488 10.6404C42.6862 10.6404 43.5363 11.4277 43.5363 12.8129C43.5363 13.5056 43.1583 13.9149 41.8044 14.041L38.3409 14.3245C34.1847 14.6709 32.7363 16.7176 32.7363 19.2364C32.7363 22.2277 34.783 24.1482 38.6557 24.1482L38.6561 24.1479ZM40.0728 20.9363C38.3097 20.9363 37.554 20.1178 37.554 18.8896C37.554 17.8821 38.2468 17.1581 40.0416 17.0007L41.8048 16.8746C42.6865 16.7801 43.316 16.6227 43.5366 16.3708V17.2838C43.5366 19.2676 42.2772 20.9363 40.0732 20.9363H40.0728Z" fill="#373435"/>
<path d="M58.2934 24.1478V11.2702H61.6311V7.90128H58.2934V6.61025C58.2934 5.47661 58.7972 4.94159 59.9308 4.94159H61.6311V1.73002C60.9067 1.66714 59.4899 1.54102 58.7343 1.54102C55.019 1.54102 53.5077 3.1468 53.5077 6.76763V7.90128H51.0518V11.2702H53.5077V24.1478H58.2934Z" fill="#373435"/>
<path d="M68.6426 24.1472V16.7165C68.6426 13.7568 70.1855 12.0565 72.5781 12.0565L74.2784 12.0881V7.9003C73.9637 7.77454 73.2077 7.67969 72.7671 7.67969C70.626 7.67969 69.2092 8.56145 68.3907 11.395V7.89995H63.8252V24.1468H68.6426V24.1472Z" fill="#373435"/>
<path d="M84.9734 24.1475C89.5072 24.1475 92.0577 21.9751 92.7504 18.6061H88.3111C87.8702 20.0545 86.6737 20.9363 84.9737 20.9363C82.7381 20.9363 81.3842 19.5195 81.2897 16.7801H93.0027C93.0655 16.3708 93.0972 16.0244 93.0972 15.5836C93.0972 10.7349 90.1375 7.27148 84.7851 7.27148C79.4323 7.27148 76.4727 10.7033 76.4727 15.7097C76.4727 20.7789 79.5268 24.1479 84.9741 24.1479L84.9734 24.1475ZM84.7844 10.4827C86.7365 10.4827 87.9331 11.6163 88.2791 13.6943H81.2893C81.6357 11.616 82.8322 10.4827 84.7844 10.4827Z" fill="#373435"/>
<path d="M110.278 24.1475V13.4108C110.278 9.47522 108.39 7.58594 104.674 7.58594C102.092 7.58594 100.707 8.78246 99.8565 10.3566V7.9007H95.291V24.1475H100.108V15.0795C100.108 12.7497 101.305 11.4587 103.131 11.4587C104.768 11.4587 105.461 12.4662 105.461 14.3555V24.1475H110.278Z" fill="#373435"/>
<path d="M115.307 24.1477C117.164 24.1477 118.172 23.0141 118.172 21.5973C118.172 20.1489 117.164 19.0156 115.307 19.0156C113.481 19.0156 112.473 20.1493 112.473 21.5973C112.473 23.0141 113.48 24.1477 115.307 24.1477Z" fill="#373435"/>
<path d="M126.285 24.1479C128.993 24.1479 130.504 23.2661 131.417 21.5662C131.417 22.6366 131.669 23.2665 132.11 23.8331H136.486C136.172 23.2977 135.983 21.8809 135.983 19.6769V12.8129C135.983 9.44391 133.841 7.27148 128.615 7.27148C123.388 7.27148 121.247 9.44391 121.247 12.8129H126.033C126.19 11.3645 127.072 10.6404 128.678 10.6404C130.315 10.6404 131.165 11.4277 131.165 12.8129C131.165 13.5056 130.787 13.9149 129.433 14.041L125.97 14.3245C121.814 14.6709 120.365 16.7176 120.365 19.2364C120.365 22.2277 122.412 24.1482 126.285 24.1482L126.285 24.1479ZM127.702 20.9363C125.939 20.9363 125.183 20.1178 125.183 18.8896C125.183 17.8821 125.876 17.1581 127.67 17.0007L129.434 16.8746C130.315 16.7801 130.945 16.6227 131.166 16.3708V17.2838C131.166 19.2676 129.906 20.9363 127.702 20.9363H127.702Z" fill="#373435"/>
<path d="M143.813 24.148V7.90115H138.995V24.148H143.813ZM141.388 5.85483C143.152 5.85483 144.128 4.81569 144.128 3.43017C144.128 2.045 143.152 1.00586 141.388 1.00586C139.657 1.00586 138.681 2.045 138.681 3.43017C138.681 4.81569 139.657 5.85483 141.388 5.85483Z" fill="#373435"/>
</svg>
